name rise35.5848peak51.9257fall54.8793.mot
datacolumns 19
datarows 18
range 7.75497000000000 7.78330000000000
endheader
time	ground_force1_vx	ground_force1_vy	ground_force1_vz	ground_force1_px	ground_force1_py	ground_force1_pz	ground_force2_vx	ground_force2_vy	ground_force2_vz	ground_force2_px	ground_force2_py	ground_force2_pz	ground_torque1_x	ground_torque1_y	ground_torque1_z	ground_torque2_x	ground_torque2_y	ground_torque2_z	
7.75497000000000	11.74367900000000	720.88444900000002	46.28933000000000	0.18719100000000	0.00000000000000	0.11894600000000	0.00000000000000	0.00000000000000	0.00000000000000	0.00000000000000	0.00000000000000	0.00000000000000	0.00000000000000	14.06385100000000	0.00000000000000	0.00000000000000	0.00000000000000	0.00000000000000	
7.75663100000000	11.41327000000000	721.14263900000003	46.26841500000000	0.18634700000000	0.00000000000000	0.11894200000000	0.00000000000000	0.00000000000000	0.00000000000000	0.00000000000000	0.00000000000000	0.00000000000000	0.00000000000000	14.06646400000000	0.00000000000000	0.00000000000000	0.00000000000000	0.00000000000000	
7.75830300000000	11.07494000000000	721.40999099999999	46.25124800000000	0.18549300000000	0.00000000000000	0.11893900000000	0.00000000000000	0.00000000000000	0.00000000000000	0.00000000000000	0.00000000000000	0.00000000000000	0.00000000000000	14.07261100000000	0.00000000000000	0.00000000000000	0.00000000000000	0.00000000000000	
7.75996600000000	10.72851700000000	721.68574599999999	46.23765400000000	0.18462900000000	0.00000000000000	0.11893400000000	0.00000000000000	0.00000000000000	0.00000000000000	0.00000000000000	0.00000000000000	0.00000000000000	0.00000000000000	14.08227600000000	0.00000000000000	0.00000000000000	0.00000000000000	0.00000000000000	
7.76163500000000	10.37384700000000	721.96923500000003	46.22745300000000	0.18375700000000	0.00000000000000	0.11893000000000	0.00000000000000	0.00000000000000	0.00000000000000	0.00000000000000	0.00000000000000	0.00000000000000	0.00000000000000	14.09543400000000	0.00000000000000	0.00000000000000	0.00000000000000	0.00000000000000	
7.76332800000000	10.01079800000000	722.25988400000006	46.22046600000000	0.18287600000000	0.00000000000000	0.11892400000000	0.00000000000000	0.00000000000000	0.00000000000000	0.00000000000000	0.00000000000000	0.00000000000000	0.00000000000000	14.11205900000000	0.00000000000000	0.00000000000000	0.00000000000000	0.00000000000000	
7.76496500000000	9.63925700000000	722.55721300000005	46.21650800000000	0.18198600000000	0.00000000000000	0.11891900000000	0.00000000000000	0.00000000000000	0.00000000000000	0.00000000000000	0.00000000000000	0.00000000000000	0.00000000000000	14.13212200000000	0.00000000000000	0.00000000000000	0.00000000000000	0.00000000000000	
7.76663100000000	9.25913400000000	722.86083799999994	46.21539700000000	0.18108800000000	0.00000000000000	0.11891200000000	0.00000000000000	0.00000000000000	0.00000000000000	0.00000000000000	0.00000000000000	0.00000000000000	0.00000000000000	14.15558800000000	0.00000000000000	0.00000000000000	0.00000000000000	0.00000000000000	
7.76831400000000	8.87036200000000	723.17047400000001	46.21694800000000	0.18018200000000	0.00000000000000	0.11890500000000	0.00000000000000	0.00000000000000	0.00000000000000	0.00000000000000	0.00000000000000	0.00000000000000	0.00000000000000	14.18241800000000	0.00000000000000	0.00000000000000	0.00000000000000	0.00000000000000	
7.76996700000000	8.47289500000000	723.48593500000004	46.22097700000000	0.17926800000000	0.00000000000000	0.11889800000000	0.00000000000000	0.00000000000000	0.00000000000000	0.00000000000000	0.00000000000000	0.00000000000000	0.00000000000000	14.21256800000000	0.00000000000000	0.00000000000000	0.00000000000000	0.00000000000000	
7.77164300000000	8.06671000000000	723.80713100000003	46.22730000000000	0.17834700000000	0.00000000000000	0.11888900000000	0.00000000000000	0.00000000000000	0.00000000000000	0.00000000000000	0.00000000000000	0.00000000000000	0.00000000000000	14.24599100000000	0.00000000000000	0.00000000000000	0.00000000000000	0.00000000000000	
7.77331500000000	7.65180800000000	724.13407400000006	46.23573400000000	0.17741800000000	0.00000000000000	0.11887900000000	0.00000000000000	0.00000000000000	0.00000000000000	0.00000000000000	0.00000000000000	0.00000000000000	0.00000000000000	14.28263200000000	0.00000000000000	0.00000000000000	0.00000000000000	0.00000000000000	
7.77496600000000	7.22821400000000	724.46686999999997	46.24609900000000	0.17648200000000	0.00000000000000	0.11886900000000	0.00000000000000	0.00000000000000	0.00000000000000	0.00000000000000	0.00000000000000	0.00000000000000	0.00000000000000	14.32243400000000	0.00000000000000	0.00000000000000	0.00000000000000	0.00000000000000	
7.77663300000000	6.79597400000000	724.80572299999994	46.25821700000000	0.17554000000000	0.00000000000000	0.11885700000000	0.00000000000000	0.00000000000000	0.00000000000000	0.00000000000000	0.00000000000000	0.00000000000000	0.00000000000000	14.36533100000000	0.00000000000000	0.00000000000000	0.00000000000000	0.00000000000000	
7.77829800000000	6.35515900000000	725.15093200000001	46.27191100000000	0.17459200000000	0.00000000000000	0.11884400000000	0.00000000000000	0.00000000000000	0.00000000000000	0.00000000000000	0.00000000000000	0.00000000000000	0.00000000000000	14.41125500000000	0.00000000000000	0.00000000000000	0.00000000000000	0.00000000000000	
7.77996200000000	5.90586600000000	725.50288499999999	46.28700900000000	0.17363800000000	0.00000000000000	0.11883000000000	0.00000000000000	0.00000000000000	0.00000000000000	0.00000000000000	0.00000000000000	0.00000000000000	0.00000000000000	14.46013000000000	0.00000000000000	0.00000000000000	0.00000000000000	0.00000000000000	
7.78163500000000	5.44821000000000	725.86206200000004	46.30334500000000	0.17267800000000	0.00000000000000	0.11881500000000	0.00000000000000	0.00000000000000	0.00000000000000	0.00000000000000	0.00000000000000	0.00000000000000	0.00000000000000	14.51187500000000	0.00000000000000	0.00000000000000	0.00000000000000	0.00000000000000	
7.78330000000000	4.98233600000000	726.22902599999998	46.32075500000000	0.17171300000000	0.00000000000000	0.11879900000000	0.00000000000000	0.00000000000000	0.00000000000000	0.00000000000000	0.00000000000000	0.00000000000000	0.00000000000000	14.56640600000000	0.00000000000000	0.00000000000000	0.00000000000000	0.00000000000000	
